<svg width="210" height="32" viewBox="0 0 210 32" fill="none" xmlns="http://www.w3.org/2000/svg">
<path d="M16.26 8.92C15.25 7.63 13.23 7.02 11.7 7.02C9.93 7.02 7.46 7.83 7.46 9.97C7.46 15.17 20.61 11.83 20.61 21.83C20.61 28.21 15.49 31.23 9.6 31.23C5.93 31.23 2.7 30.14 0 27.64L4.48 22.72C5.77 24.42 7.87 25.42 9.97 25.42C12.03 25.42 14.33 24.45 14.33 22.43C14.33 17.19 0.94 20.01 0.94 10.49C0.94 4.4 6.23 1.21 11.83 1.21C15.06 1.21 18.16 2.06 20.58 4.2L16.26 8.92Z" fill="black"/>
<path d="M36.27 15.73H30.94V22.27C30.94 24.37 31.18 25.9 33.8 25.9C34.45 25.9 35.74 25.82 36.26 25.34V30.38C34.93 30.86 33.44 30.99 32.02 30.99C27.99 30.99 24.88 29.34 24.88 25.06V15.74H21.01V10.9H24.88V5.08H30.93V10.89H36.26V15.73H36.27Z" fill="black"/>
<path d="M56.6 30.5H50.79V27.84H50.71C49.9 29.37 47.93 30.99 44.98 30.99C38.85 30.99 37.72 26.95 37.72 21.71V10.89H43.77V20.49C43.77 22.75 43.81 25.66 46.92 25.66C50.07 25.66 50.55 23.2 50.55 20.66V10.9H56.6V30.5Z" fill="black"/>
<path d="M79.84 30.5H74.27V27.92H74.19C73.26 29.33 70.92 30.99 68.18 30.99C62.37 30.99 58.54 26.79 58.54 20.86C58.54 15.41 61.93 10.41 67.5 10.41C70 10.41 72.34 11.1 73.71 12.99H73.79V0H79.84V30.5ZM69.43 15.73C66.4 15.73 64.59 17.75 64.59 20.69C64.59 23.63 66.41 25.65 69.43 25.65C72.46 25.65 74.27 23.63 74.27 20.69C74.27 17.75 72.45 15.73 69.43 15.73Z" fill="black"/>
<path d="M101.62 27.11C99.68 29.57 96.5 30.98 93.35 30.98C87.3 30.98 82.46 26.94 82.46 20.69C82.46 14.44 87.3 10.4 93.35 10.4C99 10.4 102.55 14.43 102.55 20.69V22.59H88.51C88.99 24.89 90.73 26.38 93.07 26.38C95.05 26.38 96.38 25.37 97.39 24L101.62 27.11ZM96.5 18.48C96.54 16.46 94.97 14.77 92.79 14.77C90.13 14.77 88.67 16.59 88.51 18.48H96.5Z" fill="black"/>
<path d="M104.6 10.89H110.41V13.55H110.49C111.3 12.02 113.27 10.4 116.22 10.4C122.35 10.4 123.48 14.43 123.48 19.68V30.5H117.43V20.9C117.43 18.64 117.39 15.74 114.28 15.74C111.13 15.74 110.65 18.2 110.65 20.74V30.5H104.6V10.89Z" fill="black"/>
<path d="M139.5 15.73H134.17V22.27C134.17 24.37 134.41 25.9 137.03 25.9C137.68 25.9 138.97 25.82 139.49 25.34V30.38C138.16 30.86 136.67 30.99 135.25 30.99C131.22 30.99 128.11 29.34 128.11 25.06V15.74H124.24V10.9H128.11V5.08H134.16V10.89H139.49V15.73H139.5Z" fill="black"/>
<path d="M142.72 1.94H145.38V14.53H161.36V1.94H164.02V30.5H161.36V16.94H145.38V30.5H142.72V1.94Z" fill="black"/>
<path d="M185.33 25.26C185.33 26.63 185.53 29.54 185.53 30.51H183.11C183.07 29.14 183.03 27.6 182.95 27.24H182.83C181.86 29.3 179.48 30.99 176.45 30.99C170.64 30.99 169.35 27.04 169.35 22.96V11.86H171.77V22.83C171.77 25.86 172.62 28.8 176.45 28.8C180.04 28.8 182.91 26.3 182.91 21.17V11.85H185.33V25.26Z" fill="black"/>
<path d="M189.84 0H192.26V15.13H192.34C193.83 12.55 197.02 11.38 199.8 11.38C205.53 11.38 209.6 15.5 209.6 21.18C209.6 26.87 205.53 30.98 199.8 30.98C197.02 30.98 193.83 29.81 192.34 27.23H192.26V30.5H189.84V0ZM199.81 28.81C204.37 28.81 207.19 25.38 207.19 21.18C207.19 16.98 204.37 13.56 199.81 13.56C195.41 13.56 192.02 16.99 192.02 21.18C192.02 25.37 195.41 28.81 199.81 28.81Z" fill="black"/>
</svg>
